<svg width="751.25498046875px" height="124.4224853515625px" xmlns="http://www.w3.org/2000/svg" viewBox="-125.62749023437499 12.78875732421875 751.25498046875 124.4224853515625" style="background: rgba(0, 0, 0, 0);" preserveAspectRatio="xMidYMid"><defs><linearGradient id="editing-gradow-gradient" x1="0" x2="1" y1="0.5" y2="0.5" gradientUnits="objectBoundingBox"><stop offset="0" stop-color="#0042ff"></stop><stop offset="1" stop-color="#0042ff"></stop></linearGradient><filter id="editing-gradow-filter" x="-100%" y="-100%" width="300%" height="300%"><feFlood flood-color="rgba(0%,0%,0%,0)" result="flood"></feFlood><feComposite operator="in" in2="SourceAlpha" in="flood" result="shadow"></feComposite><feOffset dx="-4" dy="-4" in="SourceGraphic" result="offset-1"></feOffset><feOffset dx="4" dy="4" in="shadow" result="offset-2"></feOffset><feMerge><feMergeNode in="offset-2"></feMergeNode><feMergeNode in="offset-1"></feMergeNode></feMerge></filter></defs><g filter="url(#editing-gradow-filter)"><g transform="translate(-18.36001229286194, 97.40500068664551)"><path d="M55.44-44.81L55.44-12.81L55.44-12.81Q55.44-10.13 54.17-7.80L54.17-7.80L54.17-7.80Q52.91-5.47 50.73-3.73L50.73-3.73L50.73-3.73Q48.56-2 45.66-1L45.66-1L45.66-1Q42.75 0 39.44 0L39.44 0L3.66 0L3.66-6.41L39.44-6.41L39.44-6.41Q41.41-6.41 43.16-6.91L43.16-6.91L43.16-6.91Q44.91-7.41 46.20-8.28L46.20-8.28L46.20-8.28Q47.50-9.16 48.27-10.33L48.27-10.33L48.27-10.33Q49.03-11.50 49.03-12.81L49.03-12.81L49.03-16L19.66-16L19.66-16Q16.34-16 13.42-17.25L13.42-17.25L13.42-17.25Q10.50-18.50 8.33-20.67L8.33-20.67L8.33-20.67Q6.16-22.84 4.91-25.77L4.91-25.77L4.91-25.77Q3.66-28.69 3.66-32L3.66-32L3.66-44.81L10.06-44.81L10.06-32L10.06-32Q10.06-30 10.81-28.25L10.81-28.25L10.81-28.25Q11.56-26.50 12.86-25.20L12.86-25.20L12.86-25.20Q14.16-23.91 15.91-23.16L15.91-23.16L15.91-23.16Q17.66-22.41 19.66-22.41L19.66-22.41L49.03-22.41L49.03-44.81L55.44-44.81ZM106.34-17.66L106.34-17.66L106.34-17.66Q106.34-14 105.19-10.80L105.19-10.80L105.19-10.80Q104.03-7.59 101.89-5.19L101.89-5.19L101.89-5.19Q99.75-2.78 96.77-1.39L96.77-1.39L96.77-1.39Q93.78 0 90.13 0L90.13 0L79 0L79 0Q75.34 0 72.34-1.39L72.34-1.39L72.34-1.39Q69.34-2.78 67.20-5.19L67.20-5.19L67.20-5.19Q65.06-7.59 63.91-10.80L63.91-10.80L63.91-10.80Q62.75-14 62.75-17.66L62.75-17.66L62.75-17.66Q62.75-21.28 63.91-24.47L63.91-24.47L63.91-24.47Q65.06-27.66 67.20-30.05L67.20-30.05L67.20-30.05Q69.34-32.44 72.34-33.81L72.34-33.81L72.34-33.81Q75.34-35.19 79-35.19L79-35.19L90.13-35.19L90.13-35.19Q93.78-35.19 96.77-33.81L96.77-33.81L96.77-33.81Q99.75-32.44 101.89-30.05L101.89-30.05L101.89-30.05Q104.03-27.66 105.19-24.47L105.19-24.47L105.19-24.47Q106.34-21.28 106.34-17.66ZM99.94-17.66L99.94-17.66L99.94-17.66Q99.94-19.97 99.27-22.02L99.27-22.02L99.27-22.02Q98.59-24.06 97.33-25.58L97.33-25.58L97.33-25.58Q96.06-27.09 94.25-27.98L94.25-27.98L94.25-27.98Q92.44-28.88 90.13-28.88L90.13-28.88L79-28.88L79-28.88Q76.69-28.88 74.86-27.98L74.86-27.98L74.86-27.98Q73.03-27.09 71.77-25.58L71.77-25.58L71.77-25.58Q70.50-24.06 69.83-22.02L69.83-22.02L69.83-22.02Q69.16-19.97 69.16-17.66L69.16-17.66L69.16-17.66Q69.16-15.34 69.83-13.30L69.83-13.30L69.83-13.30Q70.50-11.25 71.77-9.72L71.77-9.72L71.77-9.72Q73.03-8.19 74.86-7.30L74.86-7.30L74.86-7.30Q76.69-6.41 79-6.41L79-6.41L90.13-6.41L90.13-6.41Q92.44-6.41 94.25-7.30L94.25-7.30L94.25-7.30Q96.06-8.19 97.33-9.72L97.33-9.72L97.33-9.72Q98.59-11.25 99.27-13.30L99.27-13.30L99.27-13.30Q99.94-15.34 99.94-17.66ZM150.47-21.06L150.47 0L127.75 0L127.75 0Q124.03 0 121-1.38L121-1.38L121-1.38Q117.97-2.75 115.81-5.14L115.81-5.14L115.81-5.14Q113.66-7.53 112.48-10.77L112.48-10.77L112.48-10.77Q111.31-14 111.31-17.72L111.31-17.72L111.31-17.72Q111.31-21.41 112.48-24.61L112.48-24.61L112.48-24.61Q113.66-27.81 115.81-30.19L115.81-30.19L115.81-30.19Q117.97-32.56 121-33.94L121-33.94L121-33.94Q124.03-35.31 127.75-35.31L127.75-35.31L150.47-35.31L150.47-28.88L127.75-28.88L127.75-28.88Q125.44-28.88 123.58-28L123.58-28L123.58-28Q121.72-27.13 120.44-25.63L120.44-25.63L120.44-25.63Q119.16-24.13 118.47-22.09L118.47-22.09L118.47-22.09Q117.78-20.06 117.78-17.72L117.78-17.72L117.78-17.72Q117.78-15.34 118.47-13.30L118.47-13.30L118.47-13.30Q119.16-11.25 120.44-9.73L120.44-9.73L120.44-9.73Q121.72-8.22 123.58-7.34L123.58-7.34L123.58-7.34Q125.44-6.47 127.75-6.47L127.75-6.47L144-6.47L144-14.59L125.66-14.59L125.66-21.06L150.47-21.06ZM195.34-6.47L195.34 0L158.59 0L158.59-35.31L195.34-35.31L195.34-28.88L165.06-28.88L165.06-6.47L195.34-6.47ZM191.25-21.06L191.25-14.59L168.09-14.59L168.09-21.06L191.25-21.06ZM241.03-10.38L241.03-10.38L241.03-10.38Q241.03-8.22 240.22-6.33L240.22-6.33L240.22-6.33Q239.41-4.44 238.02-3.03L238.02-3.03L238.02-3.03Q236.63-1.63 234.73-0.81L234.73-0.81L234.73-0.81Q232.84 0 230.69 0L230.69 0L200.78 0L200.78-6.41L230.69-6.41L230.69-6.41Q231.53-6.41 232.27-6.70L232.27-6.70L232.27-6.70Q233-7 233.55-7.55L233.55-7.55L233.55-7.55Q234.09-8.09 234.41-8.81L234.41-8.81L234.41-8.81Q234.72-9.53 234.72-10.38L234.72-10.38L234.72-10.38Q234.72-11.22 234.41-11.95L234.41-11.95L234.41-11.95Q234.09-12.69 233.55-13.23L233.55-13.23L233.55-13.23Q233-13.78 232.27-14.09L232.27-14.09L232.27-14.09Q231.53-14.41 230.69-14.41L230.69-14.41L211.09-14.41L211.09-14.41Q208.97-14.41 207.09-15.22L207.09-15.22L207.09-15.22Q205.22-16.03 203.81-17.45L203.81-17.45L203.81-17.45Q202.41-18.88 201.59-20.78L201.59-20.78L201.59-20.78Q200.78-22.69 200.78-24.84L200.78-24.84L200.78-24.84Q200.78-26.94 201.59-28.83L201.59-28.83L201.59-28.83Q202.41-30.72 203.81-32.13L203.81-32.13L203.81-32.13Q205.22-33.53 207.09-34.36L207.09-34.36L207.09-34.36Q208.97-35.19 211.09-35.19L211.09-35.19L238.69-35.19L238.69-28.88L211.09-28.88L211.09-28.88Q210.28-28.88 209.55-28.55L209.55-28.55L209.55-28.55Q208.81-28.22 208.28-27.67L208.28-27.67L208.28-27.67Q207.75-27.13 207.44-26.39L207.44-26.39L207.44-26.39Q207.13-25.66 207.13-24.84L207.13-24.84L207.13-24.84Q207.13-24 207.44-23.27L207.44-23.27L207.44-23.27Q207.75-22.53 208.28-21.98L208.28-21.98L208.28-21.98Q208.81-21.44 209.55-21.13L209.55-21.13L209.55-21.13Q210.28-20.81 211.09-20.81L211.09-20.81L230.69-20.81L230.69-20.81Q232.84-20.81 234.73-19.98L234.73-19.98L234.73-19.98Q236.63-19.16 238.02-17.73L238.02-17.73L238.02-17.73Q239.41-16.31 240.22-14.41L240.22-14.41L240.22-14.41Q241.03-12.50 241.03-10.38ZM284.69-35.19L284.69 0L278.28 0L278.28-14.34L257.13-14.34L257.13-20.75L278.28-20.75L278.28-35.19L284.69-35.19ZM254.09-35.19L254.09 0L247.69 0L247.69-35.19L254.09-35.19ZM338.72-35.19L338.72-12.88L338.72-12.88Q338.72-10.19 337.70-7.84L337.70-7.84L337.70-7.84Q336.69-5.50 334.94-3.77L334.94-3.77L334.94-3.77Q333.19-2.03 330.83-1.02L330.83-1.02L330.83-1.02Q328.47 0 325.78 0L325.78 0L325.78 0Q322.94 0 320.48-1.20L320.48-1.20L320.48-1.20Q318.03-2.41 316.25-4.47L316.25-4.47L316.25-4.47Q314.47-2.41 311.91-1.20L311.91-1.20L311.91-1.20Q309.34 0 306.41 0L306.41 0L306.41 0Q303.78 0 301.44-1.02L301.44-1.02L301.44-1.02Q299.09-2.03 297.33-3.77L297.33-3.77L297.33-3.77Q295.56-5.50 294.55-7.84L294.55-7.84L294.55-7.84Q293.53-10.19 293.53-12.88L293.53-12.88L293.53-35.19L299.94-35.19L299.94-12.88L299.94-12.88Q299.94-11.50 300.44-10.31L300.44-10.31L300.44-10.31Q300.94-9.13 301.81-8.27L301.81-8.27L301.81-8.27Q302.69-7.41 303.88-6.91L303.88-6.91L303.88-6.91Q305.06-6.41 306.41-6.41L306.41-6.41L306.41-6.41Q307.78-6.41 308.97-6.91L308.97-6.91L308.97-6.91Q310.16-7.41 311.05-8.27L311.05-8.27L311.05-8.27Q311.94-9.13 312.44-10.31L312.44-10.31L312.44-10.31Q312.94-11.50 312.94-12.88L312.94-12.88L312.94-35.19L319.41-35.19L319.41-13.63L319.41-13.63Q319.41-12.13 319.91-10.80L319.91-10.80L319.91-10.80Q320.41-9.47 321.27-8.50L321.27-8.50L321.27-8.50Q322.13-7.53 323.28-6.97L323.28-6.97L323.28-6.97Q324.44-6.41 325.78-6.41L325.78-6.41L325.78-6.41Q327.16-6.41 328.34-6.91L328.34-6.91L328.34-6.91Q329.53-7.41 330.42-8.27L330.42-8.27L330.42-8.27Q331.31-9.13 331.81-10.31L331.81-10.31L331.81-10.31Q332.31-11.50 332.31-12.88L332.31-12.88L332.31-35.19L338.72-35.19ZM387.81-35.31L387.81 0L381.41 0L381.41-9.66L356.75-9.66L356.75-16.19L381.41-16.19L381.41-28.88L364.75-28.88L364.75-28.88Q362.41-28.88 360.34-27.98L360.34-27.98L360.34-27.98Q358.28-27.09 356.75-25.56L356.75-25.56L356.75-25.56Q355.22-24.03 354.33-21.98L354.33-21.98L354.33-21.98Q353.44-19.94 353.44-17.59L353.44-17.59L353.44 0L346.97 0L346.97-17.59L346.97-17.59Q346.97-21.28 348.38-24.50L348.38-24.50L348.38-24.50Q349.78-27.72 352.19-30.13L352.19-30.13L352.19-30.13Q354.59-32.53 357.84-33.92L357.84-33.92L357.84-33.92Q361.09-35.31 364.75-35.31L364.75-35.31L387.81-35.31ZM428.06-10.06L438.44 0L429.72 0L419.72-9.53L406.75-9.53L406.75-15.88L424.47-15.88L424.47-15.88Q425.81-15.88 427-16.41L427-16.41L427-16.41Q428.19-16.94 429.06-17.83L429.06-17.83L429.06-17.83Q429.94-18.72 430.44-19.91L430.44-19.91L430.44-19.91Q430.94-21.09 430.94-22.41L430.94-22.41L430.94-22.41Q430.94-23.75 430.44-24.92L430.44-24.92L430.44-24.92Q429.94-26.09 429.06-26.97L429.06-26.97L429.06-26.97Q428.19-27.84 427-28.36L427-28.36L427-28.36Q425.81-28.88 424.47-28.88L424.47-28.88L403.41-28.88L403.41 0L397 0L397-35.19L424.47-35.19L424.47-35.19Q427.13-35.19 429.47-34.17L429.47-34.17L429.47-34.17Q431.81-33.16 433.55-31.42L433.55-31.42L433.55-31.42Q435.28-29.69 436.28-27.36L436.28-27.36L436.28-27.36Q437.28-25.03 437.28-22.41L437.28-22.41L437.28-22.41Q437.28-20.25 436.59-18.27L436.59-18.27L436.59-18.27Q435.91-16.28 434.67-14.64L434.67-14.64L434.67-14.64Q433.44-13 431.75-11.81L431.75-11.81L431.75-11.81Q430.06-10.63 428.06-10.06L428.06-10.06ZM485.16-35.31L485.16 0L478.75 0L478.75-9.66L454.09-9.66L454.09-16.19L478.75-16.19L478.75-28.88L462.09-28.88L462.09-28.88Q459.75-28.88 457.69-27.98L457.69-27.98L457.69-27.98Q455.63-27.09 454.09-25.56L454.09-25.56L454.09-25.56Q452.56-24.03 451.67-21.98L451.67-21.98L451.67-21.98Q450.78-19.94 450.78-17.59L450.78-17.59L450.78 0L444.31 0L444.31-17.59L444.31-17.59Q444.31-21.28 445.72-24.50L445.72-24.50L445.72-24.50Q447.13-27.72 449.53-30.13L449.53-30.13L449.53-30.13Q451.94-32.53 455.19-33.92L455.19-33.92L455.19-33.92Q458.44-35.31 462.09-35.31L462.09-35.31L485.16-35.31ZM533.06 0L526.69 0L526.69 0Q526.69-3.50 525.52-6.80L525.52-6.80L525.52-6.80Q524.34-10.09 522.36-13.02L522.36-13.02L522.36-13.02Q520.38-15.94 517.77-18.47L517.77-18.47L517.77-18.47Q515.16-21 512.28-22.98L512.28-22.98L512.28-22.98Q509.41-24.97 506.42-26.33L506.42-26.33L506.42-26.33Q503.44-27.69 500.75-28.34L500.75-28.34L500.75 0L494.34 0L494.34-35.19L497.81-35.19L497.81-35.13L497.81-35.13Q501.25-34.94 505.14-33.61L505.14-33.61L505.14-33.61Q509.03-32.28 512.89-30.02L512.89-30.02L512.89-30.02Q516.75-27.75 520.33-24.64L520.33-24.64L520.33-24.64Q523.91-21.53 526.69-17.78L526.69-17.78L526.69-35.19L533.06-35.19L533.06 0Z" fill="url(#editing-gradow-gradient)"></path></g></g><style>text {
  font-size: 64px;
  font-family: Arial Black;
  dominant-baseline: central;
  text-anchor: middle;
}</style></svg>